<?xml version="1.0" encoding="utf-8"?>
<svg version="1.1" id="Layer_1" xmlns="http://www.w3.org/2000/svg" xmlns:xlink="http://www.w3.org/1999/xlink" x="0px"
    y="0px" viewBox="0 0 206 206.9" xml:space="preserve">
    <path fill="#231F20" d="M206,47.7c-6.8,0.3-13.7,0-20.5,0.5c-4.4,0.3-6.3-1.7-8.1-5.1c-3.2-6-6.7-11.8-10.3-17.5
	c-0.8-1.2-2.7-2.4-4.1-2.4c-29-0.1-58-0.2-87,0c-1.7,0-4.1,1.8-5.1,3.4C57.3,49.8,43.8,73.1,30.3,96.4c-1.2,2.1-2.4,4.2-3.4,6.4
	c-0.2,0.5,0,1.3,0.2,1.8c5.2,8.9,10.5,17.8,15.6,26.7c7,12.2,13.8,24.4,20.7,36.6c2.5,4.5,4.9,9.1,7.8,13.4c1,1.4,3.4,2.5,5.3,2.6
	c5.6,0.3,11.3,0.1,17,0.2c1.4,0,3.5,0.2,4,1.1c4,6.9,7.8,14,11.6,21.5c-16,0.4-32,0.4-48.6,0c-4.7-7.4-8.8-14.5-12.9-21.6
	c-9.6-16.6-19.1-33.2-28.8-49.7C12.6,124.8,6.2,114.4,0,104c0,0,0-0.5,0.3-0.8c1.4-2.1,2.5-3.9,3.6-5.7C12.1,83,20.1,68.5,28.4,54.2
	C38.8,36.1,49.5,18.1,60,0c39.4,0,78.7,0,118.6,0.3c3.2,4.9,5.8,9.5,8.5,14c6.3,10.6,12.6,21.1,18.9,31.6
	C206,46.4,206,46.9,206,47.7z" />
    <path fill="#818CF8" d="M168.8,46.2c4.2,7.1,8.3,13.9,12.1,20.8c0.6,1.2,0.7,3.3,0.1,4.4c-14.9,25.8-29.9,51.5-44.8,77.3
	c-3.9,6.7-7.5,13.6-11.6,20.1c-1,1.6-3.5,3-5.3,3.1c-13.2,0.3-26.3,0.2-39.5,0c-1.6,0-4-1-4.8-2.3c-3.8-6.1-7.2-12.5-11.3-19.6
	c3.5,0,6.3,0,9.2,0c10.8,0,21.7-0.1,32.5,0c2.7,0,4.3-0.6,5.8-3.2c13.4-23.5,26.7-46.9,40.7-70c3.5-5.8,3.5-9.6-0.3-15.1
	c-5.5-8.1-9.8-17.1-15.1-26.6c8.9,0,16.9-0.2,24.9,0.2c1.3,0.1,2.5,2.6,3.5,4.2C166.2,41.5,167.3,43.8,168.8,46.2z" />
    <path fill="#231F20" d="M50.3,97.3C62,77,73.4,57,85.1,37.1c0.9-1.6,3.5-2.9,5.4-3c9.3-0.3,18.7-0.3,28,0c1.8,0.1,4.1,1.6,5.1,3.2
	c2.7,3.9,4.8,8.2,7.3,12.7c-10.2,0-19.8,0.2-29.5-0.1c-3.1-0.1-4.9,1.1-6.2,3.5C86,69.6,77.1,86.1,67.3,102
	c-3.9,6.3-4.1,10.8,0.4,16.7c3.9,5,6.4,11.1,9.9,17.4c-6.4,0-12,0.2-17.5-0.1c-1.4-0.1-3.1-1.6-4-2.9c-4.1-6.7-8.1-13.6-11.9-20.5
	c-0.7-1.3-0.4-3.7,0.3-5.2C46,103.9,48.2,100.8,50.3,97.3z" />
</svg>