<?xml version="1.0" encoding="utf-8"?>
<!-- Generator: Adobe Illustrator 21.0.2, SVG Export Plug-In . SVG Version: 6.00 Build 0)  -->
<svg version="1.1" id="Layer_1" xmlns="http://www.w3.org/2000/svg" xmlns:xlink="http://www.w3.org/1999/xlink" x="0px"
	y="0px" viewBox="0 0 204.8 206.9" xml:space="preserve">
	<style type="text/css">
		.st0 {
			fill: #FBBF24;
		}

		.st1 {
			fill: #FFFFFF;
		}
	</style>
	<path class="st0" d="M150,58.9c-4.4-7.9-8.7-15.4-13.6-23.9c9,0,17-0.2,25,0.2c1.2,0.1,2.6,2.2,3.5,3.7c5.1,8.6,10.1,17.4,15.1,26.1
	c1.5,2.6,2.1,4.7,0.2,8c-15.2,25.8-30.1,51.8-45.1,77.7c-3.5,6-6.9,12-10.2,18c-1.3,2.5-3,3.4-5.9,3.3c-13-0.2-26,0-39-0.2
	c-1.5,0-3.7-0.8-4.4-1.9c-4-6.2-7.6-12.7-11.9-20c6.4,0,11.7,0,17.1,0c8.2,0,16.3-0.2,24.5,0.1c3.1,0.1,5-0.9,6.4-3.4
	c10.5-18.4,21-36.9,31.6-55.3c2.9-5.1,5.9-10.3,9.1-15.3c2.6-4,4.5-7.9,0.7-12.3C151.8,62.5,151,60.8,150,58.9z" />
	<path class="st1" d="M205.4,47.7c-6.8,0.3-13.7,0-20.5,0.5c-4.4,0.3-6.3-1.7-8.1-5.1c-3.2-6-6.7-11.8-10.3-17.5
	c-0.8-1.2-2.7-2.4-4.1-2.4c-29-0.1-58-0.2-87,0c-1.7,0-4.1,1.8-5.1,3.4C56.7,49.8,43.2,73.1,29.7,96.4c-1.2,2.1-2.4,4.2-3.4,6.4
	c-0.2,0.5,0,1.3,0.2,1.8c5.2,8.9,10.5,17.8,15.6,26.7c7,12.2,13.8,24.4,20.7,36.6c2.5,4.5,4.9,9.1,7.8,13.4c1,1.4,3.4,2.5,5.3,2.6
	c5.6,0.3,11.3,0.1,17,0.2c1.4,0,3.5,0.2,4,1.1c4,6.9,7.8,14,11.6,21.5c-16,0.4-32,0.4-48.6,0c-4.7-7.4-8.8-14.5-12.9-21.6
	c-9.6-16.6-19.1-33.2-28.8-49.7C12,124.8,5.7,114.4-0.6,104c0,0,0-0.5,0.3-0.8c1.4-2.1,2.5-3.9,3.6-5.7C11.5,83,19.5,68.5,27.8,54.2
	C38.3,36.1,48.9,18,59.4,0C98.8,0,138.1,0,178,0.3c3.2,4.9,5.8,9.5,8.5,14c6.3,10.6,12.6,21.1,18.9,31.6
	C205.4,46.4,205.4,46.9,205.4,47.7z" />
	<path class="st1" d="M49.7,97.3C61.4,77,72.8,57,84.5,37.1c0.9-1.6,3.5-2.9,5.4-3c9.3-0.3,18.7-0.3,28,0c1.8,0.1,4.1,1.6,5.1,3.2
	c2.7,3.9,4.8,8.2,7.3,12.7c-10.2,0-19.8,0.2-29.5-0.1c-3.1-0.1-4.9,1.1-6.2,3.5c-9.3,16.2-18.2,32.7-28,48.6
	c-3.9,6.3-4.1,10.8,0.4,16.7c3.9,5,6.4,11.1,9.9,17.4c-6.4,0-12,0.2-17.5-0.1c-1.4-0.1-3.1-1.6-4-2.9c-4.1-6.7-8.1-13.6-11.9-20.5
	c-0.7-1.3-0.4-3.7,0.3-5.2C45.4,103.9,47.6,100.8,49.7,97.3z" />
</svg>